<?xml version="1.0" encoding="UTF-8"?>
<!DOCTYPE svg PUBLIC "-//W3C//DTD SVG 1.1//EN" "http://www.w3.org/Graphics/SVG/1.1/DTD/svg11.dtd">
<!-- Creator: CorelDRAW 2019 (64-Bit) -->
<svg xmlns="http://www.w3.org/2000/svg" xml:space="preserve" width="169.718mm" height="63.5166mm" version="1.1" style="shape-rendering:geometricPrecision; text-rendering:geometricPrecision; image-rendering:optimizeQuality; fill-rule:evenodd; clip-rule:evenodd"
viewBox="0 0 16957.51 6346.32"
 xmlns:xlink="http://www.w3.org/1999/xlink"
 xmlns:xodm="http://www.corel.com/coreldraw/odm/2003">
 <defs>
  <style type="text/css">
   <![CDATA[
    .fil0 {fill:#333333}
    .fil1 {fill:#BFA17E;fill-rule:nonzero}
   ]]>
  </style>
 </defs>
 <g id="Layer_x0020_1">
  <metadata id="CorelCorpID_0Corel-Layer"/>
  <rect class="fil0" x="-0" y="-0.01" width="16957.51" height="6346.32"/>
  <path class="fil1" d="M1130.41 618.36c211.67,0 369.77,49.61 474.28,148.83 104.51,99.22 156.77,234.82 156.77,406.81l0 238.13c0,224.9 -93.93,369.1 -281.78,432.61 214.31,58.21 321.47,205.06 321.47,440.54l0 357.2c0,171.99 -51.59,307.59 -154.78,406.81 -103.19,99.23 -261.95,148.83 -476.27,148.83l-638.98 0 0 -2579.76 599.3 0zm353.23 555.64c0,-76.74 -29.76,-148.83 -89.3,-216.31 -59.53,-67.46 -147.51,-101.2 -263.93,-101.2l-321.48 0 0 893 321.48 0c119.07,0 207.71,-36.38 265.92,-109.15 58.21,-72.76 87.32,-148.83 87.32,-228.21l0 -238.13zm39.69 1111.28c0,-76.73 -29.76,-152.13 -89.29,-226.22 -59.54,-74.09 -147.52,-111.13 -263.94,-111.13l-361.17 0 0 1012.06 361.17 0c119.07,0 207.71,-33.07 265.92,-99.23 58.21,-66.14 87.32,-138.9 87.32,-218.29l0 -357.2z"/>
  <path id="1" class="fil1" d="M3825.27 2702.01c0,171.99 -54.9,307.59 -164.71,406.82 -109.81,99.22 -278.49,148.82 -506.03,148.82 -227.55,0 -397.55,-49.61 -509.99,-148.82 -112.46,-99.23 -168.68,-234.83 -168.68,-406.82l0 -1587.55c0,-171.98 54.9,-307.58 164.7,-406.81 109.81,-99.22 278.49,-148.82 506.03,-148.82 227.55,0 397.55,49.61 510,148.82 112.45,99.23 168.68,234.83 168.68,406.81l0 1587.55zm-277.83 -1587.55c0,-100.54 -33.07,-178.59 -99.22,-234.15 -66.15,-55.57 -166.7,-83.35 -301.64,-83.35 -132.3,0 -230.86,27.78 -295.68,83.35 -64.83,55.56 -97.24,133.62 -97.24,234.15l0 1587.55c0,97.91 33.07,175.29 99.23,232.18 66.14,56.88 166.69,85.33 301.63,85.33 132.3,0 230.86,-27.78 295.68,-83.35 64.83,-55.56 97.24,-133.62 97.24,-234.16l0 -1587.55z"/>
  <path id="2" class="fil1" d="M5849.39 2702.01c0,171.99 -54.9,307.59 -164.71,406.82 -109.81,99.22 -278.49,148.82 -506.03,148.82 -227.55,0 -397.55,-49.61 -509.99,-148.82 -112.46,-99.23 -168.68,-234.83 -168.68,-406.82l0 -1587.55c0,-171.98 54.9,-307.58 164.7,-406.81 109.81,-99.22 278.49,-148.82 506.03,-148.82 227.55,0 397.55,49.61 510,148.82 112.45,99.23 168.68,234.83 168.68,406.81l0 1587.55zm-277.83 -1587.55c0,-100.54 -33.07,-178.59 -99.22,-234.15 -66.15,-55.57 -166.7,-83.35 -301.64,-83.35 -132.3,0 -230.86,27.78 -295.68,83.35 -64.83,55.56 -97.24,133.62 -97.24,234.15l0 1587.55c0,97.91 33.07,175.29 99.23,232.18 66.14,56.88 166.69,85.33 301.63,85.33 132.3,0 230.86,-27.78 295.68,-83.35 64.83,-55.56 97.24,-133.62 97.24,-234.16l0 -1587.55z"/>
  <polygon id="3" class="fil1" points="6587.59,3198.12 6587.59,618.36 6865.42,618.36 6865.42,1713.77 7556,618.36 7865.57,618.36 7163.08,1729.65 7913.2,3198.12 7607.59,3198.12 6996.39,1995.55 6865.42,2205.91 6865.42,3198.12 "/>
  <polygon id="4" class="fil1" points="9421.36,856.49 8905.41,856.49 8905.41,3198.12 8627.59,3198.12 8627.59,856.49 8111.64,856.49 8111.64,618.36 9421.36,618.36 "/>
  <polygon id="5" class="fil1" points="10492.96,3198.12 9818.24,3198.12 9818.24,2959.99 10016.69,2959.99 10016.69,856.49 9818.24,856.49 9818.24,618.36 10492.96,618.36 10492.96,856.49 10294.51,856.49 10294.51,2959.99 10492.96,2959.99 "/>
  <path id="6" class="fil1" d="M12457.55 2702.01c0,153.47 -44.32,277.83 -132.96,373.08 -88.65,95.25 -222.92,153.46 -402.84,174.63l119.06 511.98 -238.13 0 -119.06 -508.01c-193.16,-15.88 -337.36,-71.44 -432.61,-166.69 -95.26,-95.25 -142.88,-223.58 -142.88,-384.99l0 -1587.55c0,-171.98 54.9,-307.58 164.7,-406.81 109.81,-99.22 278.49,-148.82 506.03,-148.82 227.55,0 397.55,49.61 510,148.82 112.45,99.23 168.68,234.83 168.68,406.81l0 1587.55zm-277.83 -1587.55c0,-100.54 -33.07,-178.59 -99.22,-234.15 -66.15,-55.57 -166.7,-83.35 -301.64,-83.35 -132.3,0 -230.86,27.78 -295.68,83.35 -64.83,55.56 -97.24,133.62 -97.24,234.15l0 1587.55c0,97.91 33.07,175.29 99.23,232.18 66.14,56.88 166.69,85.33 301.63,85.33 132.3,0 230.86,-27.78 295.68,-83.35 64.83,-55.56 97.24,-133.62 97.24,-234.16l0 -1587.55z"/>
  <path id="7" class="fil1" d="M14223.68 618.36l277.83 0 0 2083.65c0,171.99 -54.9,307.59 -164.71,406.82 -109.81,99.22 -278.49,148.82 -506.03,148.82 -227.55,0 -397.55,-49.61 -509.99,-148.82 -112.46,-99.23 -168.68,-234.83 -168.68,-406.82l0 -2083.65 277.82 0 0 2083.65c0,97.91 33.07,175.29 99.23,232.18 66.14,56.88 166.69,85.33 301.63,85.33 132.3,0 230.86,-28.45 295.68,-85.33 64.83,-56.89 97.24,-134.28 97.24,-232.18l0 -2083.65z"/>
  <polygon id="8" class="fil1" points="15255.58,3198.12 15255.58,618.36 16386.71,618.36 16386.71,856.49 15533.4,856.49 15533.4,1769.33 16227.96,1769.33 16227.96,2007.46 15533.4,2007.46 15533.4,2959.99 16426.4,2959.99 16426.4,3198.12 "/>
 </g>
</svg>
